<svg id="sxwl_logo" data-name="sxwl_logo" xmlns="http://www.w3.org/2000/svg" viewBox="0 0 16 16"><defs><style>.cls-1{fill:#de5f0e;}.cls-2{fill:#717071;}</style></defs><path class="cls-1" d="M10.22,15.58,9,13.46a5.45,5.45,0,0,0,2.24-1.21l-.14,2.94A6.41,6.41,0,0,1,10.22,15.58Z" transform="translate(0 0)"/><path class="cls-1" d="M7.74,16A7.88,7.88,0,0,1,0,8,7.88,7.88,0,0,1,7.74,0a7.89,7.89,0,0,1,7.74,8,8.15,8.15,0,0,1-2.79,6.15l.22-4.42A5.59,5.59,0,0,0,13.18,8,5.54,5.54,0,0,0,7.74,2.38,5.54,5.54,0,0,0,2.3,8a5.55,5.55,0,0,0,5.09,5.61L8.69,16A8,8,0,0,1,7.74,16Z" transform="translate(0 0)"/><rect class="cls-2" x="13.95" y="13.88" width="2.05" height="2.12"/></svg>